<svg xmlns="http://www.w3.org/2000/svg" version="1.1" xmlns:xlink="http://www.w3.org/1999/xlink" xmlns:svgjs="http://svgjs.com/svgjs" width="1440" height="560" preserveAspectRatio="none" viewBox="0 0 1440 560"><g mask="url(&quot;#SvgjsMask1063&quot;)" fill="none"><rect width="1440" height="560" x="0" y="0" fill="rgba(249, 88, 104, 1)"></rect><path d="M0,607.781C113.566,607.285,147.735,439.884,244.668,380.711C345.301,319.279,514.183,364.198,569.545,260.102C623.956,157.794,508.155,43.754,484.164,-69.612C462.252,-173.151,488.888,-285.782,434.773,-376.733C375.962,-475.576,285.859,-566.122,173.669,-591.462C63.003,-616.458,-42.269,-546.133,-149.359,-508.67C-250.608,-473.25,-361.925,-455.348,-436.319,-378.073C-512.436,-299.008,-563.137,-190.447,-561.36,-80.711C-559.67,23.625,-485.727,108.74,-427.038,195.022C-377.126,268.401,-309.854,321.176,-246.044,382.852C-164.494,461.676,-113.417,608.276,0,607.781" fill="#f84859"></path><path d="M1440 1009.2280000000001C1523.733 1006.05 1598.507 961.398 1666.416 912.31 1731.473 865.284 1785.862 806.1759999999999 1820.853 733.9300000000001 1856.405 660.525 1860.214 579.937 1866.769 498.64 1875.15 394.69399999999996 1930.0720000000001 273.254 1864.538 192.13600000000002 1799.437 111.55399999999997 1668.267 149.28199999999998 1566.977 127.55700000000002 1474.902 107.80799999999999 1386.211 42.58699999999999 1296.191 70.233 1206.32 97.83300000000003 1172.65 204.478 1104.755 269.508 1027.661 343.349 905.801 377.401 870.36 478.098 833.81 581.948 853.552 709.328 918.729 798.056 981.712 883.797 1103.657 889.9839999999999 1202.261 929.929 1281.288 961.943 1354.796 1012.462 1440 1009.2280000000001" fill="#fa6877"></path></g><defs><mask id="SvgjsMask1063"><rect width="1440" height="560" fill="#ffffff"></rect></mask></defs></svg>